<svg xmlns="http://www.w3.org/2000/svg" width="23" height="43" viewBox="0 0 23 43" fill="none"><path d="M18.4446 21.4994L0.752892 39.6806C0.607233 39.8271 0.492079 40.0011 0.414091 40.1924C0.336103 40.3837 0.296829 40.5886 0.298546 40.7952C0.300262 41.0018 0.342934 41.206 0.424089 41.396C0.505243 41.586 0.623272 41.758 0.771345 41.9021C0.919418 42.0462 1.09459 42.1594 1.28674 42.2354C1.47888 42.3113 1.68417 42.3484 1.89074 42.3444C2.0973 42.3405 2.30103 42.2957 2.49014 42.2125C2.67926 42.1293 2.84999 42.0094 2.99247 41.8598L21.7425 22.589C22.0263 22.2973 22.1851 21.9064 22.1851 21.4994C22.1851 21.0924 22.0263 20.7015 21.7425 20.4098L2.99247 1.13895C2.84999 0.989346 2.67926 0.86948 2.49014 0.786289C2.30103 0.703102 2.0973 0.658241 1.89074 0.654308C1.68417 0.650379 1.47888 0.687447 1.28674 0.763378C1.09459 0.83931 0.919418 0.952591 0.771345 1.09667C0.623272 1.24075 0.505243 1.41276 0.424089 1.60276C0.342934 1.79275 0.300262 1.99695 0.298546 2.20354C0.296829 2.41014 0.336103 2.61502 0.414091 2.80634C0.492079 2.99766 0.607233 3.17161 0.752892 3.31813L18.4446 21.4994Z" fill="#B9B8B8"></path></svg>